# AST/ASF file generated using VICON BodyLanguage
# -----------------------------------------------
:version 1.10
:name VICON
:units
  mass 1.0
  length 0.45
  angle deg
:documentation
   .ast/.asf automatically generated from VICON data using
   VICON BodyBuilder and BodyLanguage model FoxedUp or BRILLIANT.MOD
:root
   order TX TY TZ RX RY RZ
   axis XYZ
   position 0 0 0  
   orientation 0 0 0 
:bonedata
  begin
     id 1 
     name lhipjoint
     direction 0.440178 -0.822639 0.359871 
     length 2.53113 
     axis 0 0 0  XYZ
  end
  begin
     id 2 
     name lfemur
     direction 0.34202 -0.939693 0  
     length 7.88132  
     axis 0 0 20  XYZ
    dof rx ry rz
    limits (-160.0 20.0)
           (-70.0 70.0)
           (-60.0 70.0)
  end
  begin
     id 3 
     name ltibia
     direction 0.34202 -0.939693 0   
     length 8.43783   
     axis 0 0 20   XYZ
    dof rx
    limits (-10.0 170.0)
  end
  begin
     id 4 
     name lfoot
     direction 0.0886351 -0.243523 0.965837   
     length 2.63414   
     axis -90 7.62852e-016 20   XYZ
    dof rx rz
    limits (-45.0 90.0)
           (-70.0 20.0)
  end
  begin
     id 5 
     name ltoes
     direction 1.53703e-011 -4.21717e-011 1   
     length 1.31427   
     axis -90 7.62852e-016 20   XYZ
    dof rx
    limits (-90.0 20.0)
  end
  begin
     id 6 
     name rhipjoint
     direction -0.399779 -0.839773 0.367367   
     length 2.47948  
     axis 0 0 0  XYZ 
  end
  begin
     id 7 
     name rfemur
     direction -0.34202 -0.939693 0   
     length 7.74806   
     axis 0 0 -20   XYZ
    dof rx ry rz
    limits (-160.0 20.0)
           (-70.0 70.0)
           (-70.0 60.0)
  end
  begin
     id 8 
     name rtibia
     direction -0.34202 -0.939693 0   
     length 8.74432   
     axis 0 0 -20   XYZ
    dof rx
    limits (-10.0 170.0)
 end
 begin
     id 9 
     name rfoot
     direction -0.108514 -0.298139 0.948334   
     length 2.66102  
     axis -90 -7.62852e-016 -20   XYZ
    dof rx rz
    limits (-45.0 90.0)
           (-20.0 70.0)
  end
  begin
     id 10 
     name rtoes
     direction -1.53392e-011 -4.22077e-011 1   
     length 1.31983   
     axis -90 -7.62852e-016 -20   XYZ
    dof rx
    limits (-90.0 20.0)
  end
  begin
     id 11 
     name lowerback
     direction 0.0113257 0.999866 0.0118602   
     length 2.58694   
     axis 0 0 0   XYZ
    dof rx ry rz
    limits (-20.0 45.0)
           (-30.0 30.0)
           (-30.0 30.0)
  end
  begin
     id 12 
     name upperback
     direction -0.0164747 0.995193 -0.0965375   
     length 2.52368   
     axis 0 0 0   XYZ
    dof rx ry rz
    limits (-20.0 45.0)
           (-30.0 30.0)
           (-30.0 30.0)
  end
  begin
     id 13 
     name thorax
     direction -0.0194301 0.99433 -0.104552   
     length 2.56099   
     axis 0 0 0   XYZ
    dof rx ry rz
    limits (-20.0 45.0)
           (-30.0 30.0)
           (-30.0 30.0)
  end
  begin
     id 14 
     name lowerneck
     direction 0.0148543 0.995587 -0.092657   
     length 1.71582   
     axis 0 0 0   XYZ
    dof rx ry rz
    limits (-20.0 45.0)
           (-30.0 30.0)
           (-30.0 30.0)
  end
  begin
     id 15 
     name upperneck
     direction -0.0135467 0.993656 -0.111639   
     length 1.68937   
     axis 0 0 0   XYZ
    dof rx ry rz
    limits (-20.0 45.0)
           (-30.0 30.0)
           (-30.0 30.0)
  end
  begin
     id 16
     name head
     direction -0.00615349 0.999547 -0.029448  
     length 1.7462  
     axis 0 0 0   XYZ
    dof rx ry rz
    limits (-20.0 45.0)
           (-30.0 30.0)
           (-30.0 30.0)
  end
  begin
     id 17 
     name lclavicle
     direction 0.988267 0.149885 0.0293713  
     length 4.47222  
     axis 0 0 0   XYZ
    dof ry rz
    limits (-20.0 10.0)
           (0.0 20.0)
  end
  begin
     id 18 
     name lhumerus
     direction 1 -4.48986e-011 -1.14833e-027   
     length 5.37148   
     axis 180 -30 -90   XYZ
    dof rx ry rz
    limits (-60.0 90.0)
           (-90.0 90.0)
           (-90.0 90.0)
  end
  begin
     id 19
     name lradius
     direction 0.999998 0.00170963 -0.000987055   
     length 3.94212   
     axis 180 -30 -90   XYZ
    dof rx
    limits (-10.0 170.0)
  end
  begin
     id 20
     name lwrist
     direction 0.999998 7.53149e-005 -0.00194706   
     length 1.97106   
     axis 4.65056e-015 90 90   XYZ
    dof ry
    limits (-180.0 0.0)
 end
  begin
     id 21 
     name lhand
     direction 1 -4.48973e-011 -1.31746e-026   
     length 1.17917   
     axis 8.4065e-015 90 90   XYZ
    dof rx rz
    limits (-90.0 90.0)
           (-45.0 45.0)
  end
  begin
     id 22 
     name lfingers
     direction 1 -4.49107e-011 -2.63492e-026   
     length 0.950679   
     axis 1.6813e-014 90 90   XYZ
    dof rx
    limits (0.0 90.0)
  end
  begin
     id 23
     name lthumb
     direction 0.707107 -6.35048e-011 0.707107   
     length 1.36499   
     axis -90 45 2.85299e-015   XYZ
    dof rx rz
    limits (-45.0 45.0)
           (-45.0 45.0)
  end
  begin
     id 24 
     name rclavicle
     direction -0.996699 0.0642895 -0.0495725   
     length 4.62611  
     axis 0 0 0   XYZ 
    dof ry rz
    limits (-10.0 20.0)
           (-20.0 0.0)
  end
  begin
     id 25 
     name rhumerus
     direction -1 -4.48919e-011 -2.41059e-027  
     length 5.4981   
     axis 180 30 90   XYZ
    dof rx ry rz
    limits (-90.0 60.0)
           (-90.0 90.0)
           (-90.0 90.0)
  end
  begin
     id 26 
     name rradius
     direction -0.999999 0.00118101 -0.000681858   
     length 3.48381   
     axis 180 30 90   XYZ
    dof rx
    limits (-10.0 170.0)
  end
  begin
     id 27 
     name rwrist
     direction -0.999999 0.000321823 -0.00132288   
     length 1.7419   
     axis 4.65056e-015 -90 -90   XYZ
    dof ry
    limits (-180.0 0.0)
  end
  begin
     id 28
     name rhand
     direction -1 -4.49022e-011 -1.31746e-026   
     length 1.34932   
     axis 8.4065e-015 -90 -90   XYZ
    dof rx rz
    limits (-90.0 90.0)
           (-45.0 45.0)
  end
  begin
     id 29
     name rfingers
     direction -1 -4.49178e-011 -2.63492e-026   
     length 1.08785   
     axis 1.6813e-014 -90 -90   XYZ
    dof rx
    limits (0.0 90.0)
  end
  begin
     id 30
     name rthumb
     direction -0.707107 -6.34713e-011 0.707107   
     length 1.56195   
     axis -90 -45 -2.85299e-015   XYZ
    dof rx rz
    limits (-45.0 45.0)
           (-45.0 45.0)
  end
:hierarchy
  begin
    root lhipjoint rhipjoint lowerback
    lhipjoint lfemur
    lfemur ltibia
    ltibia lfoot
    lfoot ltoes
    rhipjoint rfemur
    rfemur rtibia
    rtibia rfoot
    rfoot rtoes
    lowerback upperback
    upperback thorax
    thorax lowerneck lclavicle rclavicle
    lowerneck upperneck
    upperneck head
    lclavicle lhumerus
    lhumerus lradius
    lradius lwrist
    lwrist lhand lthumb
    lhand lfingers
    rclavicle rhumerus
    rhumerus rradius
    rradius rwrist
    rwrist rhand rthumb
    rhand rfingers
  end

#!OML:ASF X:\für Bonn\!DataBase\2005_08_10_Bjorn_Final\c3d\bjorn.ASF
:FULLY-SPECIFIED
:DEGREES
17
root -0.0417558 19.2153 4.22112 -179.42 -0.302365 180.342
lowerback -9.59059 3.70673 2.65471
upperback 12.2518 3.54064 -0.292925
thorax 19.8791 1.54064 -1.04985
lowerneck -10.819 -5.9095 -0.907676
upperneck 20.723 -8.90506 0.0117066
head 8.24825 -4.55589 -0.796855
rclavicle -1.34428e-014 2.68359e-015
rhumerus -1226.09 -140.7 1152.73
rradius 10.8141
rwrist 39.4477
rhand -27.0508 13.7037
rfingers 7.12502
rthumb -0.469143 -16.2755
lclavicle -1.34428e-014 2.68359e-015
lhumerus -678.483 23.2037 -604.68
lradius 5.65148
lwrist -47.327
lhand -27.9338 1.14474
lfingers 7.12502
lthumb -1.32197 31.1204
rfemur -13.8419 -8.04618 13.5664
rtibia 29.073
rfoot -13.634 9.11416
rtoes -11.2968
lfemur -13.3973 2.86589 -16.7037
ltibia 30.1805
lfoot -12.5799 -8.32798
ltoes -2.35168
18
root -0.0416482 19.2275 4.26469 -179.17 -0.311955 180.29
lowerback -9.32595 3.68651 2.66194
upperback 12.1649 3.53678 -0.338836
thorax 19.5807 1.55011 -1.12095
lowerneck -11.3136 -5.86655 -0.842647
upperneck 20.6518 -8.77338 -0.133411
head 8.30284 -4.48459 -0.856598
rclavicle 3.21783e-014 -1.41137e-014
rhumerus -1224.86 -144.496 1153.94
rradius 11.0755
rwrist 38.5309
rhand -27.0123 14.4055
rfingers 7.12502
rthumb -0.431965 -15.5738
lclavicle 3.21783e-014 -1.41137e-014
lhumerus -677.174 19.8263 -605.895
lradius 5.88056
lwrist -47.4376
lhand -28.4051 0.739484
lfingers 7.12502
lthumb -1.77713 30.7118
rfemur -14.1736 -8.00003 13.5649
rtibia 28.9042
rfoot -13.3957 8.99492
rtoes -11.3986
lfemur -13.7385 3.08131 -16.7733
ltibia 30.0043
lfoot -12.3557 -8.49606
ltoes -2.4754
19
root -0.0405416 19.2407 4.30373 -178.894 -0.320863 180.218
lowerback -9.14946 3.65371 2.61933
upperback 12.0674 3.52773 -0.387484
thorax 19.3258 1.55168 -1.16431
lowerneck -11.7516 -5.80921 -0.801719
upperneck 20.5978 -8.63465 -0.238295
head 8.3564 -4.41092 -0.896877
rclavicle 1.97294e-014 -6.75868e-015
rhumerus -1223.45 -148.053 1155.24
rradius 11.2556
rwrist 37.6242
rhand -26.88 15.1762
rfingers 7.12502
rthumb -0.304236 -14.8033
lclavicle 1.97294e-014 -6.75868e-015
lhumerus -675.741 16.5952 -607.35
lradius 6.10054
lwrist -47.5426
lhand -28.8028 0.785745
lfingers 7.12502
lthumb -2.16126 30.7545
rfemur -14.5176 -7.94979 13.5428
rtibia 28.7386
rfoot -13.1544 8.87243
rtoes -11.587
lfemur -14.0817 3.24251 -16.8634
ltibia 29.8138
lfoot -12.1413 -8.63924
ltoes -2.37571
20
root -0.0403093 19.2525 4.33789 -178.629 -0.360941 180.124
lowerback -9.05417 3.6078 2.54974
upperback 11.9884 3.50136 -0.435485
thorax 19.1494 1.54079 -1.19238
lowerneck -12.2006 -5.75655 -0.746978
upperneck 20.5692 -8.49948 -0.390022
head 8.41789 -4.34349 -0.955944
rclavicle 5.56597e-015 -4.96962e-016
rhumerus -1221.73 -151.192 1156.47
rradius 11.3455
rwrist 37.5888
rhand -26.7222 15.6848
rfingers 7.12502
rthumb -0.151769 -14.2949
lclavicle 5.56597e-015 -4.96962e-016
lhumerus -674.197 13.5136 -609.017
lradius 6.50815
lwrist -47.9242
lhand -28.6586 1.46539
lfingers 7.12502
lthumb -2.02204 31.4356
rfemur -14.8235 -7.94312 13.4869
rtibia 28.5732
rfoot -12.9612 8.76819
rtoes -12.0106
lfemur -14.4006 3.41151 -16.9864
ltibia 29.6195
lfoot -11.931 -8.79326
ltoes -2.35283
21
root -0.0396846 19.2636 4.36418 -178.387 -0.389043 180.031
lowerback -9.02882 3.57471 2.48067
upperback 11.9009 3.49673 -0.495209
thorax 19.0129 1.54214 -1.22512
lowerneck -12.5639 -5.70569 -0.683839
upperneck 20.5765 -8.39225 -0.491192
head 8.47836 -4.28754 -1.00068
rclavicle -3.85145e-015 -2.88238e-015
rhumerus -1219.82 -153.952 1157.7
rradius 11.2856
rwrist 37.9038
rhand -26.803 16.2325
rfingers 7.12502
rthumb -0.229816 -13.7471
lclavicle -3.85145e-015 -2.88238e-015
lhumerus -672.628 10.592 -610.979
lradius 6.99543
lwrist -48.0509
lhand -28.1921 1.83032
lfingers 7.12502
lthumb -1.57149 31.8043
rfemur -15.0861 -8.08788 13.4246
rtibia 28.4102
rfoot -12.7355 8.83078
rtoes -12.1773
lfemur -14.657 3.57676 -17.101
ltibia 29.415
lfoot -11.7243 -8.96475
ltoes -2.2882
22
root -0.0385962 19.2747 4.38305 -178.17 -0.407992 179.959
lowerback -9.07165 3.54533 2.44409
upperback 11.8167 3.49335 -0.573085
thorax 18.933 1.55056 -1.29338
lowerneck -12.8379 -5.65527 -0.618193
upperneck 20.5662 -8.30498 -0.528549
head 8.51988 -4.23687 -1.02317
rclavicle 4.72114e-014 -2.29099e-014
rhumerus -1217.96 -156.736 1159.3
rradius 11.1238
rwrist 37.895
rhand -27.0645 16.6376
rfingers 7.12502
rthumb -0.482356 -13.3416
lclavicle 4.72114e-014 -2.29099e-014
lhumerus -670.941 7.83662 -613.236
lradius 7.4662
lwrist -47.8657
lhand -27.6056 1.86944
lfingers 7.12502
lthumb -1.00502 31.8468
rfemur -15.3052 -8.19695 13.3848
rtibia 28.2508
rfoot -12.5325 8.86788
rtoes -12.4884
lfemur -14.8605 3.77805 -17.1922
ltibia 29.2048
lfoot -11.5421 -9.13899
ltoes -2.32018
23
root -0.0379736 19.2849 4.39358 -177.962 -0.389539 179.868
lowerback -9.20531 3.52333 2.36255
upperback 11.7225 3.50833 -0.631039
thorax 18.8974 1.56037 -1.30447
lowerneck -13.0094 -5.6005 -0.578747
upperneck 20.5669 -8.20816 -0.60001
head 8.54615 -4.19086 -1.04832
rclavicle -1.98785e-016 -4.12478e-015
rhumerus -1216.51 -160.093 1162.08
rradius 11.1805
rwrist 36.8788
rhand -27.2103 16.5431
rfingers 7.12502
rthumb -0.623212 -13.4357
lclavicle -1.98785e-016 -4.12478e-015
lhumerus -669.152 5.29797 -615.713
lradius 7.92571
lwrist -47.2975
lhand -26.9642 1.48889
lfingers 7.12502
lthumb -0.385555 31.4683
rfemur -15.5001 -8.31005 13.3186
rtibia 28.0923
rfoot -12.344 8.9559
rtoes -12.6632
lfemur -15.0135 3.93125 -17.3005
ltibia 28.994
lfoot -11.352 -9.26353
ltoes -2.13118
24
root -0.0367219 19.2941 4.39775 -177.815 -0.365187 179.798
lowerback -9.33166 3.48628 2.27445
upperback 11.6082 3.50637 -0.682949
thorax 18.8282 1.56214 -1.30942
lowerneck -13.0297 -5.54104 -0.542463
upperneck 20.5734 -8.12269 -0.642841
head 8.54849 -4.15248 -1.05973
rclavicle -2.61029e-014 9.69075e-015
rhumerus -1214.91 -162.882 1164.68
rradius 11.2864
rwrist 36.4063
rhand -27.0759 16.5555
rfingers 7.12502
rthumb -0.493359 -13.4236
lclavicle -2.61029e-014 9.69075e-015
lhumerus -667.261 3.00147 -618.454
lradius 8.31031
lwrist -46.4119
lhand -26.1978 0.642102
lfingers 7.12502
lthumb 0.354708 30.6216
rfemur -15.6046 -8.427 13.2697
rtibia 27.9318
rfoot -12.1885 9.06632
rtoes -13.0592
lfemur -15.0859 4.13076 -17.3805
ltibia 28.7897
lfoot -11.2112 -9.40996
ltoes -2.1858
25
root -0.0350368 19.3018 4.3954 -177.715 -0.319977 179.775
lowerback -9.45795 3.48853 2.27247
upperback 11.4839 3.54924 -0.764164
thorax 18.7592 1.59942 -1.3845
lowerneck -12.9301 -5.50506 -0.408926
upperneck 20.5681 -8.10013 -0.674191
head 8.52132 -4.13837 -1.08529
rclavicle -3.29113e-014 2.21148e-014
rhumerus -1213.48 -165.646 1167.82
rradius 11.6309
rwrist 35.5791
rhand -26.9138 16.2749
rfingers 7.12502
rthumb -0.336832 -13.7046
lclavicle -3.29113e-014 2.21148e-014
lhumerus -665.385 0.860486 -621.518
lradius 8.7886
lwrist -45.6069
lhand -25.9774 -0.491223
lfingers 7.12502
lthumb 0.567568 29.4878
rfemur -15.645 -8.50497 13.2653
rtibia 27.7814
rfoot -12.0356 9.17321
rtoes -13.3142
lfemur -15.0792 4.33932 -17.4011
ltibia 28.5899
lfoot -11.0752 -9.55177
ltoes -2.22945
